<?xml version="1.0" encoding="UTF-8"?>
<!DOCTYPE svg PUBLIC "-//W3C//DTD SVG 1.1//EN" "http://www.w3.org/Graphics/SVG/1.1/DTD/svg11.dtd">
<!-- Creator: CorelDRAW 2017 -->
<svg xmlns="http://www.w3.org/2000/svg" xml:space="preserve" width="193.803mm" height="53.51mm" version="1.1" style="shape-rendering:geometricPrecision; text-rendering:geometricPrecision; image-rendering:optimizeQuality; fill-rule:evenodd; clip-rule:evenodd"
viewBox="0 0 19380.3 5351"
 xmlns:xlink="http://www.w3.org/1999/xlink">
 <defs>
  <style type="text/css">
   <![CDATA[
    .fil0 {fill:black;fill-rule:nonzero}
   ]]>
  </style>
 </defs>
 <g id="Camada_x0020_1">
  <metadata id="CorelCorpID_0Corel-Layer"/>
  <path class="fil0" d="M11847.22 4280.4c-2.47,-40.22 -31.4,-533.06 -6.7,-609.29 6.7,-24.66 35.28,-47.24 45.15,-76.51 4.55,-22.93 -9.27,-45.47 -31.78,-51.87 -141.11,-9.16 -264.2,-97.36 -397.9,-143.94 -28.58,-9.87 -337.61,141.13 -341.52,251.9 -3.85,110.76 211.66,194.38 352.77,230.68 141.11,36.37 264.97,43.08 259.33,18.38 -2.15,-9.56 -134.06,-15.17 -246.94,-63.85 -103.37,-44.46 -249.77,-129.13 -243.42,-176.39 6.35,-47.27 63.85,-59.27 87.49,-56.81 35.28,3.53 277.63,70.56 282.22,150.29 10.62,169.27 8.47,339.05 -6.38,508 -9.49,81.84 0,110.77 -49.71,112.53 -99.48,3.89 -202.5,-17.98 -218.02,-119.23 -4.94,-30.7 4.55,-218.72 4.55,-365.84 0,-16.57 50.49,-82.9 45.19,-88.89 -19.4,-21.17 -78.67,21.87 -128.05,53.27 -49.43,31.39 -87.53,64.91 -132.3,95.6 -7.69,5.22 -12.2,13.97 -11.99,23.29 3.53,110.06 -1.91,220.27 -16.23,329.48 -6.7,40.57 -70.55,99.84 -57.15,126.98 49.39,94.57 122.06,125.98 244.12,159.49 23.92,11.24 51.05,13.64 76.56,6.7 62.79,-35.28 116.77,-83.26 176.39,-117.12 32.42,-5.93 65.86,-0.29 94.5,15.87 33.2,20.11 67.07,79.38 94.94,100.54 9.52,7.4 11.64,3.49 22.22,0 70.56,-22.58 141.11,-118.53 197.91,-194.73 6.7,-13.76 -94.19,-79.73 -97.01,-119.94l0 0 1.76 1.41zm5607.06 -11.95c-2.51,-40.22 -31.43,-533.06 -6.74,-609.29 6.74,-24.66 35.28,-47.24 45.16,-76.51 4.55,-22.93 -9.25,-45.47 -31.75,-51.87 -141.11,-9.16 -264.2,-97.36 -397.9,-143.94 -28.61,-9.87 -337.65,141.13 -341.53,251.9 -3.84,110.76 211.67,194.38 352.78,230.68 141.11,36.37 264.97,43.08 259.33,18.38 -2.15,-9.56 -134.06,-15.17 -246.95,-63.85 -103.39,-44.46 -249.76,-129.13 -243.45,-176.39 6.35,-47.27 63.89,-59.27 87.53,-56.81 35.27,3.53 277.63,70.56 282.22,150.29 10.58,169.27 8.47,339.05 -6.39,508 -9.52,81.84 0,110.77 -49.7,112.53 -99.49,3.89 -202.5,-17.98 -218.05,-119.23 -4.91,-30.7 4.58,-218.72 4.58,-365.84 0,-16.57 50.48,-82.9 45.16,-88.89 -19.37,-21.17 -78.64,21.87 -128.06,53.27 -49.39,31.39 -87.49,64.91 -132.29,95.6 -7.66,5.22 -12.17,13.97 -11.96,23.29 3.49,110.06 -1.91,220.27 -16.23,329.48 -6.74,40.57 -70.56,99.84 -57.15,126.98 49.35,94.57 122.03,125.98 244.09,159.49 23.92,11.24 51.08,13.64 76.55,6.7 62.83,-35.28 116.8,-83.26 176.39,-117.12 32.42,-5.93 65.86,-0.29 94.54,15.87 33.16,20.11 67.03,79.38 94.9,100.54 9.53,7.4 11.68,3.49 22.23,0 70.55,-22.58 141.11,-118.53 197.94,-194.73 6.67,-13.76 -94.19,-79.73 -97.02,-119.94l0 0 1.77 1.41zm-1613.85 352.41c-95.92,-75.84 -197.24,-134.12 -266.28,-191.61 -36.97,-29.6 7.34,-73.42 19.79,-122.39 44.31,-192.64 20.07,-352.25 24.48,-544.61 1.98,-74.65 -1.94,-97.9 -67.06,-113.81 -63.43,-12.42 -127.99,-18.23 -192.62,-17.39 -14.07,2.35 -24.94,13.72 -26.7,27.9 -31.08,171.35 -24.45,547.31 2.68,623.18 17.18,36.97 97.93,103.54 97.93,113.36 -45.68,76.79 -95.78,150.95 -150.04,222 -4.69,8.67 -15.52,11.88 -24.23,7.22 -0.07,-0.03 -0.14,-0.1 -0.21,-0.14l0 0c-56.06,-33.29 -267.34,-164.74 -269.28,-251.13 0,-46.99 37.92,-79.06 50.66,-123.87 26.42,-93.02 6.14,-431.55 -13.69,-572.28 0,-36.47 -51.64,-106.71 -111.62,-129.46 -21.55,-8.08 -15.41,-52.15 -6.38,-59.24 9.06,-7.1 187.04,-135.85 222.74,-164.24 3.67,-3.13 8.57,-4.3 13.23,-3.17 29.6,8.06 146.83,78.55 178.19,132.16 18.31,18.12 30.09,41.79 33.51,67.33 111.87,-44.57 193.4,-105.03 297.18,-159.36 73.42,-51.91 178.44,52.13 211.46,82.24 25.61,25.91 43.57,58.33 51.89,93.74 36.02,-30.83 195.83,-159.1 222.04,-177.94 27.48,-23.63 67.17,-26.62 97.9,-7.33 89.11,65.58 165.2,81.51 258.97,130.94 81.49,36.96 0,73.4 -21.31,125.34 -21.31,51.89 -45.51,297.62 -46.25,472.65 0,93.74 -21.55,231.77 111.13,279.04 16.86,3.64 29.38,0 -2.93,41.35 -54.12,66.11 -148.59,171.33 -182.6,208.31 -6.17,8.29 -17.35,11.08 -26.7,6.57 -58.99,-29.35 -244.8,-171.32 -213.43,-253.54 11.5,-30.13 46.99,-56.81 46.99,-81.53 7.33,-56.76 42.58,-410.46 32.8,-546.32 -24.48,-77.57 -293.72,-92.53 -293.72,-92.53 -13.26,51.64 -22.29,104.28 -26.91,157.41 0,155.4 -11.75,338.28 32.8,486.33 56.27,115.3 108.66,103.55 100.58,118.72 -47.24,88.87 -87.88,125.83 -134.62,200.73 -5.4,10.58 -16.86,16.66 -28.65,15.14l0 0 -1.72 0.23zm2630.87 -309.13c-114.3,51.59 -245.49,156.01 -388.27,289.44 -25.8,-16.6 -57.04,-34.57 -93.71,-53.89 -3.32,243 -2.28,451.52 3.69,486.91 17.99,49.75 100.54,84.67 120.3,100.55 19.75,15.87 26.81,16.93 15.52,35.27 -46.21,79.02 -131.58,113.59 -192.97,174.27 -6.35,6.78 -16.37,8.65 -24.69,4.59 -86.22,-46.5 -164.19,-106.93 -230.72,-178.86 -37.75,-47.62 35.28,-79.02 35.28,-119.94 20.02,-135.65 19.53,-871.94 30.24,-1148.31 -1.71,-20.48 -12.64,-163.43 -12.7,-165.25l0 0c-2.82,-40.21 -103.71,-106.18 -97.01,-119.94 56.8,-76.2 127.35,-172.15 197.91,-194.73 10.58,-3.49 12.7,-7.4 22.22,0 27.87,21.16 61.74,80.43 94.94,100.54 28.64,16.16 62.08,21.8 94.5,15.87 59.62,-33.86 113.6,-81.84 176.39,-117.12 25.51,-6.94 52.64,-4.54 76.56,6.7 122.06,33.51 194.73,64.92 244.12,159.49 13.4,27.14 -50.45,86.41 -57.15,126.98 -25.73,196.22 -15.49,399.54 -14.45,597.43zm-476.97 -24.23c34.04,7.91 60.19,14.61 78.47,20.12 36.48,11.12 79.62,28.02 128.99,50.7 10.25,-121 60.27,-503.4 45.13,-597.11 -13.62,-88.82 -94.58,-116.56 -181.41,-119.4 -16.97,20.17 -32.65,41.45 -37.22,58 -15.66,65.29 -27.22,318.63 -33.96,587.69zm-6934.86 -580.01l0 0zm2310.69 589.8c74.44,23.32 129.12,49.77 215.16,74.83 35.28,9.17 74.47,-25.06 108.69,-18 8.82,11.3 27.17,27.17 15.88,35.28 -83.96,79.03 -151.7,162.99 -244.48,223.98 -117.83,-35.27 -190.18,-95.22 -310.09,-129.08 -40.92,-11.28 -141.11,0 -119.94,-105.83 21.16,-105.83 23.28,-679.45 17.95,-717.59 -5.15,-26.63 12.17,-52.49 38.84,-57.82l6.35 0c114.97,-41.97 167.22,-109.73 274.82,-169.68 4.9,-2.75 11,-2.02 15.13,1.75 101.28,91.04 241.69,137.56 325.65,185.93 -20.11,40.57 -61.07,160.86 -162.98,203.55 -13.41,9.16 -122.77,-59.97 -165.81,-111.83 -29.21,-2.01 -57.57,10.19 -76.23,32.8 -25.05,113.25 -47.95,520.35 61.06,554.58l0 -2.87zm-1377.95 -659.65c-20.85,-14.82 -18.34,-25.06 -11.29,-35.28 64.21,-64.56 176.39,-189.09 202.11,-195.8 8.96,-0.9 17.92,1.61 25.05,7.05 53.23,23.4 101.24,57.23 141.11,99.49 7.12,23.57 10.65,48.06 10.62,72.68 108.65,-15.87 199.32,-119.6 294.21,-171.83 11.72,-10.22 29.21,-10.22 40.93,0 20.6,19.85 43.32,37.35 67.73,52.23 107.6,45.86 182.74,65.62 162.98,101.96 -8.82,43.04 -43.04,83.61 -43.04,129.11 -17.99,185.53 -35.27,373.6 -6.7,559.15 6.7,58.91 68.09,88.2 100.86,129.09 18.73,23.31 23.32,27.9 10.62,47.3 -44.7,51.58 -92.43,100.47 -142.91,146.41 -44.1,43.39 -59.59,48.32 -88.51,16.93 -60.33,-52.67 -117.02,-109.36 -169.69,-169.69 -53.98,-70.56 6.7,-83.61 17.99,-129.15 19.23,-185.84 19.23,-373.23 0,-559.11 -67.73,-40.61 -154.52,-50.09 -230.72,-58.91 -27.86,-3.19 -32.1,-5.3 -35.27,35.27 -8.47,187.68 -17.99,364.41 9.17,549.98 0,45.16 58.91,79.38 58.91,113.25 0,90.66 -101.95,151.69 -160.86,226.48 -12.1,11.39 -30.94,11.39 -43.04,0 -58.56,-56.45 -135.82,-83.61 -187.68,-151.7 79.02,-187.67 67.73,-398.29 79.02,-595.13 6.7,-85.87 -31.78,-168.99 -101.6,-219.44l0 -0.34zm-1405.82 977.89c-105.83,-27.2 -147.11,-99.48 -262.46,-99.48 -20.99,-1.06 -39.06,-15.17 -45.16,-35.28 0,-45.15 61,-68.08 67.73,-101.96 61.03,-215.22 52.21,-380.28 18,-599.72 0,-35.28 -74.79,-52.2 -74.79,-79.37 0,-90.66 90.66,-169.72 158.39,-244.45 73.56,19.18 137.76,64.1 180.98,126.63 15.87,15.87 22.58,61.03 49.74,43.03 67.73,-35.28 101.92,-145 188.03,-151.68 56.45,74.77 117.83,169.68 117.83,253.64 -9.17,86.08 -67.73,176.39 -135.82,244.47 -16.51,7.55 -35.84,4.97 -49.74,-6.7 -35.28,-67.73 -45.16,-151.69 -113.24,-185.57 -49.75,-35.28 -67.74,35.28 -67.74,67.75 -2.11,141.11 -5.99,414.51 -7.79,458.61 -1.73,44.09 81.17,101.59 194.41,85.71 15.88,-6.69 22.58,27.18 15.88,43.05 -78,87.48 -106.19,198.22 -235.34,182.39l1.09 -1.07zm-1187.8 -987.77c22.22,-24.34 17.29,-26.1 0,-35.28 -56.8,-25.4 -211.66,-137.21 -222.24,-138.63 -10.58,-1.41 -135.11,65.94 -208.49,170.38 -3.88,5.29 -4.24,8.82 5.29,14.47 40.64,21.19 76.62,50.34 105.83,85.71 11.29,16.94 9.18,144.64 8.12,207.44 -1.06,62.8 0,135.82 6.7,203.55 14.15,78.6 23.21,158.02 27.16,237.78 -3.1,15.31 -13.12,28.36 -27.16,35.27 -124.53,-43.03 -226.48,-110.77 -362.3,-135.81 -10.13,-9.14 -16.51,-21.74 -17.99,-35.28 25.04,-76.91 89.6,-101.6 115,-194.73 13.41,-48.19 19.23,-98.19 17.29,-148.17 -1.17,-33.73 -4.59,-67.32 -10.23,-100.54 -6.28,-34.62 -15.84,-68.47 -28.58,-101.26 -8.47,-25.04 -26.81,-88.19 -27.87,-91.36 -27.16,-83.61 -47.27,-111.14 -47.27,-194.74 6.7,-79.01 108.66,-67.74 124.53,-135.81 -2.12,-12.45 -10.76,-22.81 -22.58,-27.15 -153.81,76.88 -305.5,196.84 -373.59,355.23 49.74,153.8 124.53,305.5 117.83,468.49 4.13,63.78 -5.12,127.7 -27.17,187.68 -22.57,68.09 -101.95,117.82 -117.82,185.55 -6.71,6.67 15.87,25.05 35.27,35.28 121.68,21.77 239.22,62.27 348.55,119.94 46.67,22.3 92,47.28 135.82,74.8 15.45,9.98 34.29,13.3 52.21,9.17 101.95,-43.04 158.4,-135.82 260.35,-196.86 52.21,-40.57 101.94,-74.78 113.23,-135.82 35.28,-211.66 -45.15,-407.45 -27.16,-618.06 4.58,-37.5 20.74,-72.64 46.21,-100.54l1.06 -0.7zm-1481.66 -169.32c83.61,-86.1 144.99,-194.76 253.65,-244.51 38.45,-17.98 101.95,-61.02 129.12,-11.26 -60.93,84.57 -137.73,156.46 -226.13,211.67 -42.2,28.58 -90.56,46.85 -141.11,53.26 -6.35,7.4 -15.17,-9.89 -15.17,-9.89l-0.36 0.73zm80.79 881.93c17.99,-129.13 17.99,-249.07 25.05,-366.53 0,-86.09 -2.47,-201.44 -35.28,-244.48 -32.81,-43.04 -67.73,-35.28 -58.92,-61.03 25.76,-75.85 176.39,-189.1 211.67,-195.42 35.28,-6.38 100.19,59.6 127.35,109.34 25.05,35.28 -40.92,79.02 -47.62,119.95 -15.88,86.07 13.76,543.27 31.75,620.14 15.87,40.6 56.44,58.95 83.61,92.81 9.35,7.35 10.97,20.85 3.63,30.24 -0.03,0.04 -0.07,0.07 -0.1,0.11l-3.53 3.52c-44.42,69.93 -99.38,132.5 -162.99,185.56 -83.25,-45.39 -159.52,-102.54 -226.48,-169.72 -10.58,-7.72 -9.52,-17.25 0,-35.28 21.7,-27.09 38.52,-57.74 49.74,-90.62l0 0 2.12 1.41zm-342.55 294.21c-6.35,6.78 -16.37,8.65 -24.69,4.59 -86.22,-46.5 -164.19,-106.93 -230.72,-178.86 -37.75,-47.62 35.28,-79.02 35.28,-119.94 25.05,-169.69 17.99,-1068.22 40.92,-1147.59 45.16,-90.68 78.67,-57.84 249.06,-192.26 92.43,-73.01 109.72,-7.42 111.48,3.16 1.76,10.61 -77.61,80.44 -88.9,121.37 -35.28,147.1 -49.74,1113.72 -35.28,1199.44 17.99,49.75 100.54,84.67 120.3,100.55 19.75,15.87 26.81,16.93 15.52,35.27 -46.21,79.02 -131.58,113.59 -192.97,174.27zm6395.5 -537.27c0,9.16 154.16,-92.79 142.88,-176.39 -7.06,-68.09 -74.79,-101.96 -117.83,-153.82 -6.74,-9.2 -25.05,6.7 -35.28,6.7 -25.05,113.25 8.82,215.19 8.82,323.85l0 0 1.41 -0.34zm398.64 287.51c10.09,-3.63 21.17,1.61 24.8,11.72 3.25,8.98 -0.56,18.97 -8.93,23.56 -68.47,64.91 -188.38,173.21 -230.04,211.67 -8.47,7.82 -20.99,9.23 -31.01,3.53 -136.42,-75.01 -286.03,-122.95 -440.62,-141.12 -10.55,-10.19 -17.04,-23.85 -18.35,-38.46 68.06,-124.56 25.05,-645.22 40.93,-762.7 11.29,-25.05 17.99,-52.21 45.15,-58.91 113.6,-41.63 186.97,-129.14 293.51,-190.16 7.13,-4.02 16.06,-2.88 21.88,2.84 98.07,92.41 185.56,191.19 277.63,296.32 13.76,20.47 40.92,45.16 35.28,68.09 -94.9,147.11 -400.4,366.53 -416.28,391.59 -18.02,52.46 9.03,109.74 61.03,129.12 74.79,22.57 151.7,49.73 237.77,74.78 61.74,20.47 81.85,-17.64 108.66,-18.34l0 0 -1.41 -3.53zm-4656.67 -287.51c0,9.16 153.81,-92.79 141.11,-176.39 -6.7,-68.09 -74.79,-101.96 -117.82,-153.82 -6.74,-9.2 -25.05,6.7 -35.28,6.7 -25.05,113.25 9.17,215.19 9.17,323.85l0 0 2.82 -0.34zm398.29 287.51c10.09,-3.63 21.17,1.61 24.8,11.72 3.24,8.98 -0.57,18.97 -8.93,23.56 -68.44,64.55 -188.03,173.21 -229.65,211.67 -8.61,7.87 -21.28,9.3 -31.4,3.53 -136.39,-75.04 -286,-122.99 -440.62,-141.12 -10.48,-10.19 -16.86,-23.88 -17.99,-38.46 67.73,-124.56 25.04,-645.22 40.92,-762.7 11.29,-25.05 17.99,-52.21 45.15,-58.91 117.83,-43.04 192.27,-135.82 305.51,-196.87 100.93,96.92 196.92,198.84 287.51,305.53 13.76,20.45 40.57,45.14 35.28,68.04 -95.25,147.15 -400.75,366.58 -416.63,391.62 -17.85,52.46 9.17,109.58 61,129.12 74.82,22.57 151.73,49.74 237.8,74.78 62.06,20.47 82.2,-17.28 108.66,-17.98l0 0 -1.41 -3.53zm-3280.82 -287.51c0,9.16 153.81,-92.79 141.11,-176.39 -6.71,-68.09 -74.79,-101.96 -117.83,-153.82 -6.7,-9.2 -25.05,6.7 -35.28,6.7 -25.05,113.25 9.17,215.19 9.17,323.85l0 0 2.83 -0.34zm398.28 287.51c10.09,-3.63 21.2,1.61 24.8,11.72 3.21,8.98 -0.56,18.97 -8.92,23.56 -68.44,64.55 -188.03,173.21 -229.66,211.67 -8.57,7.87 -21.27,9.3 -31.4,3.53 -136.38,-75.04 -286,-122.99 -440.62,-141.12 -10.44,-10.23 -16.83,-23.88 -17.99,-38.46 67.73,-124.56 25.05,-645.22 40.92,-762.7 11.29,-25.05 17.99,-52.21 45.16,-58.91 117.83,-43.04 192.26,-135.82 305.5,-196.87 100.97,96.89 196.92,198.84 287.52,305.53 13.76,20.45 40.92,45.14 35.27,68.04 -94.89,147.15 -400.75,366.58 -416.27,391.62 -17.85,52.46 9.17,109.58 61.03,129.12 74.79,22.57 151.69,49.74 237.77,74.78 62.09,20.47 82.2,-17.28 108.66,-17.98l0 0 -1.77 -3.53zm-1156.76 -525.99c-11.99,-78.32 -25.75,-164.4 -73.37,-227.54 -58.92,-65.63 -290.34,-117.84 -290.34,-117.84l-16.23 877.37c101.07,45.43 195.93,103.64 282.22,173.2 42.05,5.23 81.21,-22.21 90.67,-63.5 61.03,-197.9 29.63,-497.05 7.76,-641.34l0 0 -0.71 -0.35zm-464.61 -200.73c-33.51,24.45 -71.89,41.41 -112.53,49.73 0,0 44.8,345.38 35.28,372.54 -35.28,72.32 -184.51,196.5 -184.51,196.5 83.68,17.07 166.16,39.57 246.95,67.38 0,0 29.98,-516.11 16.58,-685.8l0 0 -1.77 -0.35zm811.39 733.78c-27.16,61.02 -115.35,99.44 -188.03,144.98 -72.67,45.52 -339.37,237.78 -400.75,296.69 -35.28,35.28 -72.32,72.28 -108.66,47.63 -137.93,-99.48 -239.18,-211.67 -394.76,-287.17 -87.49,-43.04 -153.81,-92.43 -280.45,-105.83 -57.86,-6.34 -105.84,-11.99 -76.2,-35.28 29.63,-23.32 203.55,-149.57 237.77,-243.8 38.77,-101.04 51.64,-210.18 37.39,-317.5 -4.94,-31.71 -13.4,-141.11 -35.28,-168.59 -14.32,-17.01 -30.3,-32.63 -47.62,-46.57 -15.17,-17.29 -19.76,-39.86 57.5,-39.86 118.85,-3.17 235.98,-29.14 345.02,-76.56 26.28,-16.18 43.53,-43.71 46.57,-74.44 0,0 -198.62,-83.23 -279.76,-111.11 -329.14,-112.21 -299.51,-231.44 -292.8,-260.72 13.76,-97.01 130.88,-178.14 150.99,-178.14 20.1,0 15.87,11.64 155.22,125.95 201.08,165.09 865.36,216.93 944.38,271.64 60.68,41.96 86.08,105.84 101.96,178.84 35.27,145 61.03,735.9 27.16,881.95l0 0 0.35 -2.11zm6981.47 -3421.95c0,0 -48.33,23.99 -62.8,-54.68 -19.05,-103.36 -35.28,-545.75 -35.28,-545.75l116.77 -21.87 -18.69 622.3zm-341.49 1502.48c-702.74,-473.43 -922.9,-1139.47 -700.62,-1595.97 100.89,-207.43 341.49,-380.64 585.26,-456.84 14.82,0 35.28,-10.94 35.28,10.93 0,21.87 -14.82,43.75 0,62.09 83.6,80.08 200.37,145.7 218.33,262.12 0,7.05 -4.9,10.58 -20.07,5.29 -15.21,-5.29 -294.92,-100.19 -342.2,-51.51 10.94,10.41 22.72,19.83 35.28,28.22 76.91,55.04 161.93,137.94 243.42,343.96 0,2.82 2.11,13.76 -6.03,12 -8.08,-1.77 -194.35,-53.63 -211.67,-18 8.75,10.34 18.87,19.48 30.02,27.17 101.92,90.84 178.86,206.16 223.66,335.14l0 0 -5.33 8.82c-66.99,-9.53 -194.34,-38.81 -195.43,-4.95 2.85,9.29 8.25,17.58 15.55,23.99 89.89,93.83 159.74,204.98 205.32,326.67 0.74,2.09 1.3,4.2 1.76,6.36 -35.27,6.7 -211.66,-26.46 -197.2,12.35 4.09,8.2 9.35,15.79 15.52,22.58 76.38,95.06 136,202.44 176.39,317.5 0.11,1.39 0.11,2.83 0,4.22 -32.81,9.52 -195.79,-6.34 -166.86,32.11 76.87,104.32 133.35,222.21 166.51,347.49 0,0 -84.7,-45.85 -107.95,-61.4l0 0 1.06 -0.34zm1449.53 -1975.56c-82.17,-5.64 -503.74,-352.77 -635,-450.85 -6.88,-5.39 -15.63,-7.83 -24.31,-6.7 -608.19,101.6 -987.78,264.59 -1234.72,392.29 -166.37,76.94 -319.94,178.89 -455.44,302.3 -107.53,100.36 -186.76,227.29 -229.66,367.98 -72.7,233.18 -269.55,1432.96 1364.86,2032.34 126.33,46.58 317.5,38.1 453.36,-10.22 234.56,-83.24 479.07,-345.38 621.21,-529.17 14.49,-21.88 51.5,-90.65 -63.82,8.82 -115.36,99.48 -427.57,134.76 -599.72,116.4 -172.16,-18.32 -396.53,-134.38 -396.53,-134.38 0,0 5.3,-564.45 19.05,-662.18 14.82,-109.36 93.14,-86.43 93.14,-86.43 0,192.98 -20.85,419.82 -20.85,609.24 0,19.77 30.72,23.64 56.48,7.78 66.81,-53.79 137.55,-102.5 211.66,-145.7 64.21,-35.28 302.33,-128.78 306.92,-137.94 18.35,-35.28 -151.34,-6 -169.37,-75.14 -32.77,-302.34 0,-615.61 -25.72,-910.87 -7.05,-160.16 6,-592.67 6,-592.67 0,0 335.49,358.07 357.37,339.73 29.63,-26.11 70.55,-95.96 149.93,-168.28 123.82,-110.06 209.9,-160.51 253.26,-215.19 8.22,-19.19 -0.67,-41.35 -19.87,-49.53 -4.86,-2.08 -10.09,-3.14 -15.41,-3.04l0 0 -2.82 1.41zm4118.36 1594.55c0,0 282.22,-166.16 252.59,-284.68 -25.4,-105.83 -117.16,-160.17 -184.86,-242.01 -10.58,-14.1 -35.28,-2.83 -60.32,12.36 -39.16,176.39 -7.41,513.98 -7.41,513.98l0 0.35zm611.01 378.53c35.28,0 67.03,14.81 25.05,53.26 -185.95,97.4 -239.54,282.22 -388.06,378.89 -12.31,7.51 -27.55,8.3 -40.6,2.14 -176.39,-67.04 -253.26,-114.31 -433.57,-165.46 -111.79,-40.22 -150.25,-33.15 -183.05,-51.86 -50.1,-28.94 -33.16,-59.97 -29.28,-70.56 89.95,-232.48 28.22,-995.55 52.17,-1173.34 3,-42.11 30.73,-78.45 70.56,-92.42 176.39,-64.91 290.72,-204.61 458.61,-297.39 10.44,-7.91 24.83,-7.91 35.28,0 99.16,97.71 196.53,253.96 438.89,468.12 53.97,47.64 63.81,70.56 53.27,105.84 -149.23,231.07 -654.41,615.25 -654.41,615.25 0,0 14.82,172.86 92.08,211.67 96.73,44.04 199.42,73.67 304.8,87.83 36.69,3.89 105.13,-71.97 198.26,-71.97zm-8546.04 478.38c-116.81,-35.27 -284.38,-193.34 -383.82,-276.22 -53.27,-42.68 10.58,-105.84 28.57,-176.39 64.21,-277.29 26.46,-599.73 29.28,-876.31 0,-41.27 -152.43,-184.15 -369,-136.88 -25.4,5.65 -48.33,53.63 -50.45,79.72 -13.79,165.47 -17.29,853.39 3.84,881.94 21.21,28.58 154.91,196.88 154.91,178.86 -45.86,87.85 -211.67,219.45 -257.18,279.78 -6.73,12.5 -22.4,17.19 -34.89,10.43 -0.14,-0.07 -0.24,-0.13 -0.38,-0.2l0 0c-65.3,-38.84 -241.66,-250.12 -374.3,-338.31 -22.93,-15.19 -17.64,-40.58 0,-63.53 28.57,-35.28 80.43,-33.14 98.78,-97.7 38.1,-134.07 -2.83,-735.2 -12,-874.19 -9.17,-139 -82.2,-105.83 -168.27,-136.88 -31.05,-11.64 -22.23,-75.14 -9.53,-85.37 12.7,-10.23 269.52,-195.79 321.38,-236.71 5.19,-4.55 12.35,-6.28 19.05,-4.59 42.69,11.64 211.67,62.09 256.82,141.11 26.39,26.11 43.4,60.22 48.3,97.02 137.48,-58.07 266.63,-133.95 384.21,-225.78 13.44,-12.49 31.43,-18.98 49.74,-17.99 118.54,0 260.7,98.07 298.8,132.64 36.98,37.61 62.73,84.74 74.44,136.18 304.8,-89.96 391.23,-215.55 429.33,-242.72 63.5,-58.91 82.9,-56.09 141.11,-10.58 124.89,99.48 246.95,132.29 314.68,167.22 67.73,34.92 35.28,37.39 9.17,70.55 -19.4,25.05 -70.55,59.63 -87.13,97.71 -28.93,65.63 -46.92,403.6 -47.98,655.82 0,92.42 12.7,349.97 23.95,381.36 26.53,48.28 64.63,89.25 110.81,119.23 38.81,25.42 47.94,35.28 17.99,70.55 -77.96,95.25 -187.68,192.27 -236.36,246.95 -9.07,11.94 -25.26,15.91 -38.81,9.53 -86.43,-46.57 -378.88,-199.33 -333.37,-316.09 16.58,-43.4 67.38,-81.84 67.38,-117.47 10.94,-81.84 13.76,-287.51 13.76,-365.48 0,-199.33 7.72,-439.55 6.7,-500.24 -1.06,-60.69 -294.22,-103.37 -415.22,-87.49 -19.22,81.26 -32.67,163.78 -40.21,246.94 0,224.01 -16.97,487.54 47.27,700.98 81.49,166.14 156.63,149.22 144.99,171.1 -68.12,128.05 -126.3,181.32 -193.68,289.29 -8.78,14.36 -24.83,22.66 -41.62,21.5l0 0 -1.06 0.71zm6354.58 -10.22c-138.28,-109.39 -284.33,-193.34 -383.82,-276.23 -53.27,-42.69 10.59,-105.83 28.58,-176.39 63.85,-277.64 28.92,-507.65 35.27,-784.93 2.83,-107.61 -2.85,-141.11 -96.66,-164.07 -91.47,-17.86 -184.46,-26.24 -277.63,-25.04 -20.29,3.45 -35.92,19.79 -38.46,40.23 -44.8,246.94 -35.27,788.8 3.89,898.16 24.69,53.29 141.11,149.23 141.11,163.36 -65.9,110.72 -138.08,217.56 -216.26,319.95 -6.77,12.52 -22.36,17.18 -34.89,10.43 -0.1,-0.07 -0.24,-0.14 -0.38,-0.21l0 0c-80.79,-47.95 -385.24,-237.39 -388.06,-361.94 0,-67.73 54.68,-113.95 73.03,-178.51 38.1,-134.04 8.81,-621.93 -19.76,-824.78 0,-52.56 -74.44,-153.82 -160.87,-186.63 -31.04,-11.64 -22.22,-75.13 -9.17,-85.36 13.05,-10.23 269.52,-195.79 321.03,-236.72 5.22,-4.51 12.31,-6.21 19.05,-4.58 42.68,11.64 211.67,113.24 256.82,190.5 26.35,26.1 43.36,60.22 48.33,97.01 161.22,-64.2 278.7,-151.34 428.27,-229.66 105.84,-74.79 257.18,75.14 304.8,118.54 36.83,37.32 62.73,84.06 74.79,135.1 51.83,-44.44 282.22,-229.3 319.97,-256.46 39.62,-34.08 96.84,-38.38 141.11,-10.58 128.41,94.54 238.13,117.47 373.24,188.73 117.48,53.24 0,105.84 -30.69,180.63 -30.69,74.77 -65.62,428.97 -66.67,681.22 0,135.1 -31.08,334.09 160.16,402.15 24.34,5.28 42.33,0 -4.24,59.61 -77.96,95.25 -214.13,246.95 -263.17,300.24 -8.89,11.98 -25.01,15.98 -38.49,9.5 -84.98,-42.33 -352.77,-246.94 -307.58,-365.45 16.54,-43.41 67.73,-81.86 67.73,-117.49 10.55,-81.84 61.38,-591.61 47.24,-787.4 -35.28,-111.83 -423.34,-133.37 -423.34,-133.37 -19.12,74.45 -32.1,150.3 -38.77,226.86 0,224.01 -16.97,487.52 47.27,700.96 81.14,166.15 156.64,149.23 145,171.11 -68.12,128.05 -126.65,181.31 -194.03,289.28 -7.76,15.26 -24.27,24.02 -41.28,21.84l0 0 -2.47 0.39zm-8588.71 -542.59c0,0 233.18,124.91 338.66,171.1 14.11,0 53.98,-16.22 54.68,-40.93 51.86,-293.86 -7.05,-939.08 -7.05,-939.08 -104.57,-38.32 -211.28,-70.48 -319.62,-96.31 -27.06,4.52 -48.72,24.82 -55.03,51.51 -30.34,170.02 -11.64,853.37 -11.64,853.37l0 0.34zm130.52 522.47c-181.18,-104.52 -368.86,-197.27 -561.97,-277.65 -42.69,-25.03 10.58,-78.31 28.57,-131.56 35.28,-149.6 28.93,-794.12 20.47,-947.23 -2.47,-47.97 -29.29,-70.56 -31.05,-100.89 -1.59,-31.89 13.86,-62.23 40.57,-79.72 165.56,-90.95 323.74,-194.74 473.08,-310.45 19.29,-13.23 43.42,-17.25 65.96,-10.93 123.12,32.1 311.86,130.88 657.93,246.94 22.22,7.41 25.04,28.57 10.58,53.27 -105.82,170.74 -81.84,722.12 -64.2,828.66 9.53,94.56 52.56,189.45 54.67,291.41 0.11,23.83 -11.81,46.12 -31.75,59.24 -189.43,125.24 -352.76,254.36 -545.73,396.21 -39.8,8.29 -81.21,2.06 -116.77,-17.64l-0.36 0.34zm6208.88 -534.11c0,0 237.42,117.49 343.96,160.18 14.47,0 53.62,-17.64 53.62,-42.69 42.69,-295.3 -37.04,-938.42 -37.04,-938.42 0,0 -204.96,-61.36 -322.44,-86.07 -26.88,5.43 -47.83,26.43 -53.3,53.27 -25.05,170.76 0,330.91 10.62,490.71 10.58,131.59 4.58,363.02 4.58,363.02zm119.91 515.78c-181.15,-104.42 -368.86,-197.03 -561.94,-277.3 -42.68,-25.05 10.59,-78.3 28.58,-131.6 35.28,-149.57 24.69,-284.69 24.69,-426.85 -11.29,-168.62 -28.57,-490.36 -35.28,-618.41 -5.08,-34.31 12.03,-68.09 42.69,-84.32 172.3,-79.8 331.96,-184.54 473.78,-310.8 17.57,-11.6 39.23,-15.2 59.62,-9.87 119.24,31.04 534.11,144.63 661.46,246.94 0,10.58 25.05,28.54 10.55,53.27 -105.84,170.73 -81.46,722.14 -63.82,828.68 9.49,96.66 54.33,193.32 54.68,297.74 0.07,19.87 -9.88,38.43 -26.46,49.39 -191.91,126.64 -356.66,256.45 -551.04,399.69 -40.04,8.38 -81.77,2 -117.51,-17.98l0 1.42zm-7535.99 -2451.47c-176.39,55.74 -183.8,269.17 -119.59,404.28 95.95,149.58 274.46,193.33 423.33,306.92 140.76,-318.2 -140.05,-762.7 -303.74,-711.2zm4.94 1162.05c-59.62,-114.3 -337.96,-252.59 -337.96,-252.59 -14.4,19.85 -26.25,41.41 -35.28,64.19 -63.85,166.17 -53.27,640.32 35.28,960.27 28.57,95.97 425.8,202.15 423.33,149.58 -4.59,-276.22 -10.23,-773.99 -87.14,-921.45l1.77 0zm447.32 942.64c-197.91,93.8 -479.07,317.5 -654.05,388.05 -18.34,7.4 -20.81,15.16 -38.45,6 -192.62,-98.78 -445.56,-180.29 -625.83,-322.81 -10.73,-20.06 -10.73,-44.13 0,-64.21 44.94,-42.38 73.66,-99.18 81.14,-160.52 10.23,-60.66 35.28,-418.73 0,-615.24 -35.28,-186.62 -49.39,-259.27 53.27,-319.96 214.49,-127.35 266.7,-227.58 266.7,-227.58 -27.13,-72.88 -48.58,-147.77 -64.21,-223.97 -47.27,-347.49 558.1,-683.69 642.06,-685.45 149.93,-2.82 254.35,187.68 293.51,322.79 67.73,202.85 32.1,444.5 -21.17,587.02 23.88,32.39 43.01,68.05 56.8,105.84 52.21,208.49 -51.51,591.6 46.21,1135.58 5.19,30.16 -9.63,60.19 -36.69,74.46l0.71 0zm-2366.43 -572.93c-10.59,105.83 -42.69,242.01 25.04,319.96 92.43,117.48 279.76,266.71 429.33,117.48 -42.68,-184.86 27.17,-750.7 -14.11,-825.14 -41.27,-74.44 -216.6,-92.44 -362.3,-145.36 -40.43,-12.32 -83.22,10.49 -95.53,50.94 -0.04,0.07 -0.04,0.15 -0.07,0.23l0 2.11c-10.94,160.17 28.22,320.32 17.64,480.14l0 -0.36zm564.44 1079.48c0,-105.83 -49.74,-474.1 -77.26,-511.14 0,0 -221.19,278.32 -314.32,303.03 -81.85,25.05 -262.47,-55.4 -262.47,-55.4 0,0 -93.13,107.6 -78.67,182.39 14.47,74.8 378.18,213.8 546.45,211.66 107.95,-3.88 186.27,-93.5 186.27,-130.54zm397.93 -90.29c-17.63,120.99 -174.27,70.56 -241.65,187.69 -60.68,110.42 -70.55,123.82 -242,256.11 -171.45,132.29 -399.35,48.67 -543.63,-6.71 -211.67,-80.45 -355.6,-114.31 -397.94,-168.99 -52.56,-67.39 -40.21,-97.7 10.59,-157.68 99.13,-117.14 294.92,-322.09 294.92,-322.09 -104.04,-69.86 -212.06,-133.6 -323.5,-190.85 -28.57,-14.13 -53.27,-53.26 -42.69,-78.3 25.05,-53.29 74.44,-82.92 95.96,-149.59 21.52,-66.68 41.63,-670.28 -6.35,-914.41 -7.02,-60.47 27.2,-118.21 83.61,-141.1 315.38,-147.46 445.56,-311.19 510.47,-293.55 35.28,9.91 -22.23,70.56 341.49,181.72 363.71,111.12 365.12,90.66 388.05,100.89 22.93,10.23 70.56,42.69 70.56,67.73 -17.64,53.28 -70.56,92.43 -95.96,145.69 -26.77,72.84 -40.04,149.96 -39.16,227.55 0,426.86 159.81,828.67 134.76,1255.55l0 0 2.47 0.34zm-3111.14 -1643.94c87.48,-127.71 176.39,-295.28 337.96,-305.86 95.6,86.78 240.95,258.23 240.95,258.23 186.09,-37.75 359.33,-122.8 503.06,-246.94 10.58,0 364.06,114.3 412.04,165.45 19.86,20.21 25.72,50.38 14.82,76.55 -56.09,76.91 -116.77,303.38 -78.32,1081.27 6.35,55.39 68.09,124.87 124.53,160.88 56.45,35.96 68.44,44.44 2.12,99.83 -73.38,61.01 -208.49,230 -237.42,261.38 -28.93,31.42 -31.4,55.05 -87.84,6.03 -56.45,-49.05 -211.67,-167.95 -282.23,-228.28 -25.92,-21.55 -29.42,-60.04 -7.86,-85.95 0.03,-0.04 0.07,-0.07 0.1,-0.1l0 0c34.89,-37.66 62.09,-81.76 80.08,-129.84 24.7,-299.31 19.16,-600.34 -16.58,-898.52 -105.83,-64.2 -438.15,-91.36 -438.15,-91.36 0,0 -15.52,893.22 -3.52,987.77 7.4,56.81 67.73,109.35 114.65,141.12 39.51,27.15 59.62,39.5 3.17,74.44 -99.02,69.62 -187.85,152.73 -263.87,246.94 -32.11,50.09 -53.27,17.64 -67.74,0 -79.73,-76.55 -157.69,-182.77 -254.01,-246.94 -27.85,-18.36 -26.1,-30.69 -14.11,-46.24 31.25,-40.83 53.39,-87.84 64.92,-137.92 33.16,-141.11 27.87,-503.07 32.81,-744.02 6.35,-311.5 -208.49,-347.83 -176.39,-398.31l0 0 -3.17 0.39zm-689.34 -388.06c131.59,-135.11 227.56,-305.86 398.3,-384.17 60.31,-28.58 160.15,-95.96 202.84,-17.64 -61.03,156.98 -194.38,241.65 -336.55,323.49 -70.56,42.66 -164.03,61.39 -239.53,92.79 -10.95,10.58 -25.06,-14.47 -25.06,-14.47l0 0zm61.74 881.95c0,-135.12 33.15,-253.3 -20.47,-370.79 -33.54,-37.87 -71.69,-71.41 -113.57,-99.82 -19.2,-14.04 -23.36,-40.99 -9.31,-60.15 0.03,-0.07 0.09,-0.1 0.11,-0.17l4.59 -5.3 275.18 -269.87c26.09,-25.4 295.97,178.86 363.01,237.42 25.05,21.87 -65.63,16.93 -73.38,293.15 -3.88,137.24 0,785.28 0,890.42 49.5,39.52 101.34,76.03 155.22,109.35 12.35,6.64 16.96,22.05 10.32,34.42 -1.31,2.42 -3.02,4.62 -5.03,6.51l-302.33 284.7c-15.93,15.85 -41.35,16.95 -58.56,2.45 -105.95,-101.67 -220.7,-193.75 -342.9,-275.17 -14.83,-9.5 -7.06,-29.28 7.06,-40.19 31.3,-20.85 55.35,-50.96 68.79,-86.1 13.41,-32.46 30.33,-464.95 40.91,-649.82l0 0 0.36 -1.04zm-839.25 -1523.3c0,0 516.8,261.06 618.06,57.5 39.15,-79.02 -70.56,-138.64 -138.65,-145.69 -141.11,-35.28 -480.13,89.6 -480.13,89.6l0 0 0.72 -1.41zm-564.45 1449.21c0,0 160.86,-164.74 312.55,-225.07 93.5,-37.4 119.96,-41.27 133.37,-70.56 13.4,-29.28 -125.25,-195.43 -312.92,-235.65 -56.09,-12 -117.48,17.64 -117.48,64.2 -21.51,128.06 -15.86,468.14 -15.86,468.14l0 0 0.34 -1.06zm-275.52 -873.12c72.68,166.16 176.38,458.61 176.38,458.61 0,-246.38 66.16,-488.21 191.57,-700.27 0,0 -265.29,-118.18 -365.13,-192.96 -60.33,-35.28 -113.95,0 -141.11,56.79 -25.05,95.96 66.31,211.67 138.99,377.47l0 0 -0.7 0.36zm-295.64 1615.02c67.73,21.15 458.62,101.26 458.62,101.26 0,0 0,-215.57 0,-300.94 0,-252.59 10.58,-519.3 0,-771.87 -15.93,277.24 -162.39,530.52 -394.76,682.6 -153.8,105.85 -236,202.15 -221.89,227.21 19.39,35.28 128.75,53.26 157.33,61.4l0 0 0.7 0.34zm244.84 512.22c-296.33,-118.17 -630.42,-206.02 -879.12,-217.32 -67.38,-3.17 -111.83,-1.75 -114.31,-16.22 -3.88,-23.65 42.34,-53.62 81.86,-77.97 157.8,-98.12 302.84,-215.42 431.78,-349.25 85.38,-81.83 67.39,-194.73 -42.68,-242 -11.99,-5.29 -16.93,-19.4 0,-35.28 105.84,-101.96 141.11,-81.84 113.95,-153.09 -25.26,-46.23 -65.43,-82.54 -113.95,-103.02 -55.08,-19.29 -112.52,-31.15 -170.74,-35.27 -42.34,-6.35 -39.15,-22.59 12.35,-58.91 118.88,-83.98 211.67,-87.85 227.2,-111.84 15.51,-23.98 -30,-70.56 -47.3,-81.85 -99.62,-73.1 -221.67,-109.05 -345,-101.6 -64.21,3.54 -67.73,-12 -9.17,-53.62 80.92,-49.24 169.35,-84.98 261.76,-105.83l14.82 -2.11c6.95,-0.82 11.97,-7.1 11.17,-14.04 -0.14,-1.24 -0.47,-2.47 -0.93,-3.6 -3.16,-7.87 -6.81,-15.56 -10.95,-22.93 -81.84,-119.24 -254.01,-99.84 -378.53,-99.84 -53.42,0 -82.33,0 -82.09,-12.63 0.17,-8.64 13.99,-23.19 42.94,-47.69 94.53,-78.67 220.83,-167.93 268.8,-198.62 33.16,-21.17 32.81,-9.52 51.15,11.29 130.89,148.87 395.47,830.44 439.22,830.44 78.3,7.04 -39.17,-341.49 -74.78,-433.92 -54.67,-171.41 -141.61,-330.8 -256.14,-469.54 -10.74,-21.31 -10.74,-46.43 0,-67.77 256.14,-255.73 542.94,-434.24 803.99,-700.58 18.44,-21.42 47.86,-29.71 74.79,-21.17 174.26,105.83 493.89,252.23 493.89,252.23 0,0 419.8,-282.22 756,-191.91 161.56,42.69 162.64,237.07 121,324.91 -81.84,172.16 -362.31,515.06 -931.67,361.25 -94.56,-25.4 -261.42,-94.55 -261.42,-94.55 -42.85,71.58 -79.67,146.65 -110.07,224.37 -23.77,73.94 -43.67,149.05 -59.61,225.07 0,0 294.2,-222.25 432.85,-272.34 180.63,149.57 394.75,239.53 650.89,329.49 10.62,3.85 16.47,15.24 13.39,26.11 -40.93,136.84 -184.86,262.45 -336.9,302.33 -168.28,44.44 -221.55,47.61 -315.73,92.77 0,0 376.41,226.49 674.86,885.49 76.91,169.69 148.17,169.3 186.61,206 7.07,6.71 -67.01,104.07 -164.4,145 -88.89,53.26 -224.01,54.33 -320.32,24.69 -96.3,-29.61 -354.87,-493.89 -470.24,-674.16 -115.36,-180.26 -167.23,-242 -302.34,-299.86 -10.57,-7.05 -35.28,25.06 -46.21,46.22 -25.05,362.65 26.46,703.77 20.12,1069.99 -14.11,28.56 -114.31,19.74 -132.29,5.62 0,-105.83 4.92,-246.94 4.92,-246.94 0,0 -85,160.87 -166.85,235.67 -10.28,15.09 -28.77,22.35 -46.57,18.33z"/>
 </g>
</svg>
