<svg xmlns="http://www.w3.org/2000/svg" width="549.33" height="138.6" viewBox="0 0 549.33 138.6"><defs><style>.a{fill:#fff;}</style></defs><title>logo-kcd-hp</title><path class="a" d="M29.48,85c-8.4-3.35-17.87-5.84-24.92-6.16-1.91-.09-3.17-0.05-3.24-0.46-0.11-.67,1.2-1.52,2.32-2.21a63.77,63.77,0,0,0,12.24-9.9c2.42-2.32,1.91-5.52-1.21-6.86-0.34-.15-0.48-0.55,0-1,3-2.89,4-2.32,3.23-4.34a6.61,6.61,0,0,0-3.23-2.92,18.63,18.63,0,0,0-4.84-1c-1.2-.18-1.11-0.64.35-1.67,3.37-2.38,6-2.49,6.44-3.17s-0.85-2-1.34-2.32A15,15,0,0,0,5.5,40.11c-1.82.1-1.92-.34-0.26-1.52a24.75,24.75,0,0,1,7.42-3l0.42-.06a0.36,0.36,0,0,0,.29-0.5,5.58,5.58,0,0,0-.31-0.65C10.74,31,5.86,31.55,2.33,31.55c-2.55,0-3.13,0-1.11-1.71,2.68-2.23,6.26-4.76,7.62-5.63,0.94-.6.93-0.27,1.45,0.32C14,28.75,21.5,48.07,22.74,48.07c2.22,0.2-1.11-9.68-2.12-12.3a40,40,0,0,0-7.26-13.31,2.13,2.13,0,0,1,0-1.92C20.62,13.29,28.75,8.23,36.15.68a2,2,0,0,1,2.12-.6c4.94,3,14,7.15,14,7.15s11.9-8,21.43-5.44C78.28,3,78.31,8.51,77.13,11,74.81,15.88,66.86,25.6,50.72,21.24c-2.68-.72-7.41-2.68-7.41-2.68a42.64,42.64,0,0,0-3.12,6.36A63.39,63.39,0,0,0,38.5,31.3S46.84,25,50.77,23.58c5.12,4.24,11.19,6.79,18.45,9.34a0.61,0.61,0,0,1,.38.74c-1.16,3.88-5.24,7.44-9.55,8.57-4.77,1.26-6.28,1.35-8.95,2.63,0,0,10.67,6.42,19.13,25.1,2.18,4.81,4.2,4.8,5.29,5.84,0.2,0.19-1.9,2.95-4.66,4.11-2.52,1.51-6.35,1.54-9.08.7s-10.06-14-13.33-19.11S43.71,54.64,39.88,53c-0.3-.2-1,0.71-1.31,1.31-0.71,10.28.75,19.95,0.57,30.33-0.4.81-3.24,0.56-3.75,0.16,0-3,.14-7,0.14-7s-2.41,4.56-4.73,6.68A1.26,1.26,0,0,1,29.48,85ZM22.54,70.48c1.92,0.6,13,2.87,13,2.87s0-6.11,0-8.53c0-7.16.3-14.72,0-21.88A24.83,24.83,0,0,1,24.35,62.29c-4.36,3-6.69,5.73-6.29,6.44,0.55,1,3.65,1.51,4.46,1.74h0Zm8.38-45.78c2.06,4.71,5,13,5,13a39,39,0,0,1,5.43-19.85S33.83,14.5,31,12.38c-1.71-1-3.23,0-4,1.61-0.71,2.72,1.88,6,3.94,10.7h0Zm7.81,24.75s4.56-4.67,8.86-6.38c2.65-1.06,3.4-1.17,3.78-2s-3.55-5.54-8.87-6.68c-1.59-.34-3.33.5-3.33,1.82-0.61,3.63-.45,13.27-0.45,13.27h0Zm16-41.08S69.38,15.77,72.25,10c1.11-2.24-2-3.93-3.93-4.13-4-1-13.61,2.54-13.61,2.54h0ZM78.52,51.55c0-3.83.94-7.18-.58-10.51a17.18,17.18,0,0,0-3.22-2.83,1.22,1.22,0,0,1-.26-1.71l0.13-.15,7.8-7.65c0.74-.72,8.39,5.07,10.29,6.73,0.71,0.62-1.86.48-2.08,8.31-0.11,3.89,0,22.26,0,25.24A44.72,44.72,0,0,0,95,72.08a0.72,0.72,0,0,1,.15,1.16l-8.57,8.07a1.23,1.23,0,0,1-1.66.07,70.46,70.46,0,0,0-9.72-7.8c-0.42-.27-0.2-0.83.2-1.14A5.13,5.13,0,0,0,77.35,70c0.38-.92.86-13.18,1.16-18.42h0Zm-1.75-25c3.73-3.83,6.45-8.67,11.29-10.89,1.71-.81,4.54-2.72,5.75-0.5-1.73,4.45-5.51,6.85-9.54,9.17-2,1.21-4.65,1.74-6.79,2.63-0.31.3-.71-0.41-0.71-0.41h0Zm19.54,11c2.48-3.62,5-8.37,9.58-8.67,2.71,2.46,6.83,7.32,6.83,7.32a31.35,31.35,0,0,0,14.26-7c0.3,0,10.32,3.24,11.68,4.69a2,2,0,0,1,.42,2.17c-1.59,2.18-3.31,8.6-2.22,30.65,0.18,1.57,1.93,3.54,3.53,4.56s1.94,1.26.06,2.83c-2.08,1.73-5.91,6.52-6.73,7.41s-0.89,1.56-2.49.17-6-4.76-8-6.47a1.73,1.73,0,0,1-.22-2.44h0a11.15,11.15,0,0,0,2.27-3.68,126.56,126.56,0,0,0-.47-25.47c-3-1.82-12.42-2.59-12.42-2.59s-0.44,25.32-.1,28c0.21,1.61,1.92,3.1,3.25,4,1.12,0.77,1.69,1.12.09,2.11a36.86,36.86,0,0,0-7.48,7c-0.91,1.42-1.51.5-1.92,0-2.26-2.17-4.47-5.18-7.2-7-0.79-.52-0.74-0.87-0.4-1.31a10.2,10.2,0,0,0,1.84-3.91c0.94-4,.79-14.26.93-21.09,0.18-8.83-5.91-9.86-5-11.29h0ZM184.5,84.15c-0.5,3.43-4.94,2-6.85,5.32-1.72,3.13-2,3.51-6.86,7.26s-11.32,1.38-15.41-.19c-6-2.28-10.08-3.24-11.28-4.79-1.49-1.91-1.14-2.77.3-4.47,2.81-3.32,8.36-9.13,8.36-9.13a91.08,91.08,0,0,0-9.17-5.41c-0.81-.4-1.51-1.51-1.21-2.22,0.71-1.51,2.11-2.35,2.72-4.24s1.18-19-.18-25.92a3.84,3.84,0,0,1,2.37-4c8.94-4.18,12.63-8.82,14.47-8.32,1,0.28-.63,2,9.68,5.15s10.35,2.57,11,2.86,2,1.21,2,1.92c-0.5,1.51-2,2.62-2.72,4.13a18.11,18.11,0,0,0-1.11,6.45c0,12.1,4.53,23.49,3.82,35.59h0Zm-11.28,2.56c0-3-1.41-13.44-2.19-14.49,0,0-6.27,7.89-8.91,8.59-2.32.71-7.44-1.57-7.44-1.57s-2.64,3.05-2.23,5.17,10.72,6.06,15.49,6C171,90.3,173.22,87.76,173.22,86.71Zm-16-30.6c-0.3,3-1.21,6.86.71,9.07,2.62,3.33,7.93,7.56,12.17,3.33-1.21-5.24.77-21.28-.4-23.39S163.56,42.5,159.43,41a2.17,2.17,0,0,0-2.71,1.45l0,0.06c-0.31,4.54.8,9.08,0.5,13.61h0Zm67.08,16.24c-5.61,2.66-13.58,9-18.54,11-0.52.21-.59,0.43-1.09,0.17-5.46-2.8-12.63-5.11-17.74-9.15a1.93,1.93,0,0,1,0-1.82A7.5,7.5,0,0,0,189.23,68c0.29-1.72,1-11.87,0-17.44-1-5.29-1.4-7.35,1.51-9.07,6.08-3.61,7.56-6.45,7.56-6.45a42.92,42.92,0,0,1-1.82-6.35c-1.34-9.85,15.82-19.38,18.2-19.43,4.25-.08,7.21,5.32,8.32,9.15,1.92,5.75.91,12.6-.6,16.64a12,12,0,0,1,1.61,3c1.48,5.91-1.46,16.77,1.31,32.19A2,2,0,0,1,224.28,72.35ZM211.62,45.63c-1.69-3.24-9.58-7.16-9.58-7.16a8.29,8.29,0,0,0-1,1.82c-1.81,4.71-1.51,18.15,1,27.22,0.81,2.72,12.07,5.73,12,4.24-0.13-7.83-.29-21.94-2.47-26.12h0Zm-0.14-32.94c-5,1.58-5.21,7.63-3.39,11.46,2.72,4.24,7.78,5.48,12,8.7C224.08,23.83,216.12,11.23,211.48,12.69ZM425.1,82.18a138.11,138.11,0,0,0-15.93-7.86c-1.21-.71.3-2.22,0.81-3.73,1-4.24.7-8.07,0.7-12.1-0.32-4.78-.81-13.9-1-17.53a2.32,2.32,0,0,1,1.21-2.39,54.87,54.87,0,0,0,13.43-8.81,2.1,2.1,0,0,1,1.69-.28c3.38,0.88,15.14,4.1,18.75,7,0,0.3.71,0.81,0.3,1.51-3,4.84-2.31,20.47-1.81,23.49,0.27,2.74,1.54,5.48,1.55,8.44a1.67,1.67,0,0,1-.75,1.4c-5.44,3.59-10.11,7.27-15.62,11.33a4.8,4.8,0,0,1-3.33-.51h0Zm-3.4-14.62s6.73,3.33,9.75,4.54c0.41,0,1.52-.5,1.52-1.21,1.21-8.37-1.05-26.6-1.05-26.6s-5.81-1.74-9.14-2.44a1.93,1.93,0,0,0-1.51,1.51c-0.71,4.84,0,9.38.3,13.91C421.87,61,421.7,67.56,421.7,67.56Zm-176,15.14a138.05,138.05,0,0,0-15.93-7.87c-1.21-.71.3-2.22,0.81-3.73,1-4.24.82-22.51,0.58-26.85-0.07-1.36-.83-2-0.88-2.86a2.55,2.55,0,0,1,1.15-2.26,102.2,102.2,0,0,0,13.41-8.8,2.24,2.24,0,0,1,1.87-.31c3.49,0.91,8.84,3.71,18.65,7,0.63,0.21.71,0.81,0.3,1.51-3,4.84-2.32,20.47-1.82,23.49,0.27,2.68,1.49,5.37,1.55,8.26a2,2,0,0,1-.9,1.68c-5.37,3.55-10,7.21-15.47,11.23A4.8,4.8,0,0,1,245.71,82.69ZM242,67.89s6.61,3.54,9.6,4.85c0.4,0,1.53-.46,1.55-1.16,1.47-8.33-.2-26.62-0.2-26.62a80.73,80.73,0,0,0-9.06-2.73,1.93,1.93,0,0,0-1.56,1.46c-0.86,4.82-.33,24.19-0.33,24.19h0ZM485.46,83.27c-3.92-3.1-8.06-5.48-10.88-7.83-1.51-1.21.3-3,.81-5,1.81-7.87.82-14.39,1-22.25,0.08-3.05-.08-4-2.74-4.65a38.45,38.45,0,0,0-7.87-.71,1.32,1.32,0,0,0-1.09,1.14c-1.27,7-1,22.36.11,25.46,0.7,1.51,4,4.23,4,4.63a94.86,94.86,0,0,1-6.13,9.07,0.73,0.73,0,0,1-1,.29h0c-2.29-1.36-10.92-6.73-11-10.26,0-1.92,1.55-3.23,2.07-5.06,1.08-3.8.25-17.63-.56-23.38,0-1.49-2.11-4.36-4.56-5.29-0.88-.33-0.63-2.13-0.26-2.42s7.64-5.55,9.1-6.71a0.61,0.61,0,0,1,.54-0.13c1.21,0.33,6,3.21,7.28,5.4a4.77,4.77,0,0,1,1.37,2.75c4.57-1.82,7.9-4.29,12.14-6.51,3-2.12,7.29,2.13,8.64,3.36A8.1,8.1,0,0,1,488.55,39c1.47-1.26,8-6.5,9.07-7.27a3.38,3.38,0,0,1,4-.3c3.64,2.68,6.75,3.33,10.58,5.35,3.33,1.51,0,3-.87,5.12s-1.86,12.16-1.89,19.31c0,3.83-.88,9.47,4.54,11.4,0.69,0.15,1.2,0-.12,1.69-2.21,2.7-6.07,7-7.46,8.51a0.88,0.88,0,0,1-1.09.27c-2.41-1.2-10-7-8.72-10.36,0.47-1.23,1.92-2.32,1.92-3.33,0.3-2.32,1.74-16.77,1.34-22.32-1-3.17-12-3.78-12-3.78a39.67,39.67,0,0,0-1.1,6.43c0,6.35-.48,13.82,1.34,19.87,2.3,4.71,4.44,4.23,4.11,4.85-1.93,3.63-3.59,5.14-5.5,8.2a1.15,1.15,0,0,1-1.17.62h0Zm-180.13.29c-3.31-1-8.06-5.48-10.88-7.83-1.51-1.21.3-3,.81-5,1.82-7.86.75-17,.83-24.84,0-1.17-4.32-5.22-10.46-3.88-0.72.16-1.37,1.52-1.43,2.26-0.39,4.69-.49,24.19.11,25s4.39,5.58,4.39,5.07c-1.3,2.49-6,6.22-7.29,7.93a0.73,0.73,0,0,1-1,.29h0c-1.85-1.1-6.85-7.09-10.61-9.59-0.65-.43-0.5-1.15,0-1.8,0.81-1,2.28-.94,2.8-2.77,1.08-3.8-.08-20.84-0.34-24.78s-2.33-3-4.77-3.88c-0.88-.33-0.63-2.13-0.27-2.42s7.64-5.55,9.11-6.71a0.6,0.6,0,0,1,.54-0.13c1.21,0.33,6,1.76,7.28,4a4.76,4.76,0,0,1,1.37,2.75,48.1,48.1,0,0,0,10.89-6.4,1.92,1.92,0,0,1,1.41-.51c3.36,0,7.39,2.78,8.47,3.76a8.06,8.06,0,0,1,2.11,3.86c8.64-2.55,11.09-6.11,12.17-6.88,1.8-1.67,2.35-1.59,4-.3,3.54,2.82,7,3.75,8.92,4.74s1,1.06.26,2c-0.55.71-2,1.69-2.47,2.77-0.82,1.86-1.33,11.44-1.36,18.59,0,2.62.36,9.92,0.68,10.81a9.45,9.45,0,0,0,3.14,3.38c1.1,0.72,1.36,1,.51,2-2.21,2.7-5.32,5.45-6.7,7a0.9,0.9,0,0,1-1.1.27C324,81,315.71,76.67,317,73.36c0.47-1.23,1.91-2.32,1.91-3.33,0.31-2.32.39-8.15,0.39-10.36,0-5.65.22-12.46,0.19-14.18s-8.34-2.93-11.77-2.48a50,50,0,0,0-1.14,7c0,6.35-.48,13.82,1.34,19.87,2.31,4.71,4.44,4.23,4.11,4.85-1.93,3.63-3.58,5.14-5.49,8.2a1.28,1.28,0,0,1-1.18.61h0ZM547.58,70c1,0,1.9.42,0.71,1.51-5.27,2.76-6.79,8-11,10.74a1.21,1.21,0,0,1-1.15.06c-5-1.9-7.18-3.24-12.29-4.69-3.17-1.14-4.26-.94-5.19-1.47-1.42-.82-0.94-1.7-0.83-2,2.55-6.59.8-28.22,1.48-33.26a3,3,0,0,1,2-2.62c5-1.84,8.24-5.8,13-8.43a0.83,0.83,0,0,1,1,0c2.81,2.77,5.57,7.2,12.44,13.27,1.53,1.35,1.81,2,1.51,3-4.23,6.55-18.55,17.44-18.55,17.44s0.42,4.9,2.61,6a30.74,30.74,0,0,0,8.64,2.49C543,72.15,544.94,70,547.58,70ZM530.26,59.27s8-4.71,7.16-8.07c-0.72-3-3.32-4.54-5.24-6.86-0.3-.4-1-0.08-1.71.35-1.11,5-.21,14.57-0.21,14.57h0ZM413.52,14.07c-2.33-.16-14.28-10-18-12.78a0.93,0.93,0,0,0-.69-0.19c-17.24,2.88-28,7.5-35,11.12a50.92,50.92,0,0,0-12.91,8.57,23.74,23.74,0,0,0-6.51,10.43c-2.06,6.61-7.64,40.62,38.69,57.61,3.58,1.32,9,1.08,12.85-.29,6.65-2.36,13.58-9.79,17.61-15,0.41-.62,1.46-2.57-1.81.25s-12.12,3.82-17,3.3-11.24-3.81-11.24-3.81,0.15-16,.54-18.77c0.42-3.1,2.64-2.45,2.64-2.45,0,5.47-.59,11.9-0.59,17.27,0,0.56.87,0.67,1.6,0.22a48.72,48.72,0,0,1,6-4.13c1.82-1,8.57-3.65,8.7-3.91,0.52-1-4.29-.17-4.8-2.13-0.93-8.57,0-17.45-.73-25.82-0.2-4.54.17-16.8,0.17-16.8s9.51,10.15,10.13,9.63c0.84-.74,2-2.72,4.25-4.77,3.51-3.12,5.95-4.55,7.18-6.1a1.07,1.07,0,0,0-1-1.49h0Zm-41.09,56c-19.92-13.42-26.16-32.3-19.86-45.24,2.86-5.88,9.68-10.79,16.59-12.95,0.42,0,1-.31,1,0.31s-0.42,1.24,0,1.76c2.37,2.27,5.68,4.13,6.19,7.43,0,0.2-.14.3-0.57,0.15s-8.36-2.84-9.7-1.46a7.45,7.45,0,0,0,1,.8c2.18,1.56,4.59,3.91,6.9,9.75,0,0.08.06,0.39-.17,0.34s-5.51-1.52-6-.51a4.34,4.34,0,0,0,.85.77A22.7,22.7,0,0,1,375,40.72a0,0,0,0,0,0,0l-0.15.25c-1.9-.27-5.51-1.1-5.54-0.14a1.49,1.49,0,0,0,.44.68,27.15,27.15,0,0,1,5.82,9.26,1.35,1.35,0,0,1,.05.18c-1,.19-6-0.75-5.59.35a2.83,2.83,0,0,0,.44.64,30.5,30.5,0,0,1,5,9,0.61,0.61,0,0,1,0,.12c-0.93.27-5.55-.18-4.73,0.91a29.19,29.19,0,0,1,4.72,9.85s-2.4-1.3-3.06-1.74h0Zm9.68-42.59s-1.37.68-1.78-1.55c-0.54-2.93-1-15.47-1-15.47l3.31-.62Zm-197.9,97c-0.77,1.73-3.27,2.82-5.33,4.11s-9.62,6.74-11.36,8.41c-1,1-2.05,2.05-3.08,1.35-3.91-2.82-6.78-6-11.19-8.14-2.48-1.22-4.36-2.62-7.95-3-1.64-.18-3-0.34-2.16-1s5.77-4.24,6.74-6.91a18.37,18.37,0,0,0,1.06-9c-0.14-.9-0.38-4-1-4.78a9.76,9.76,0,0,0-1.35-1.32c-0.43-.49-0.56-1.13,1.63-1.13A26.29,26.29,0,0,0,160,100.9a2.8,2.8,0,0,0,1.32-2.11s-5.63-2.36-7.93-3.15c-9.33-3.18-8.49-6.56-8.3-7.39,0.39-2.75,3.71-5.05,4.28-5.05s0.45,0.33,4.4,3.57c5.7,4.68,24.53,6.15,26.77,7.7,1.72,1.19,2.44,3,2.89,5.07,1,4.11,1.73,20.86.77,25h0Zm-23-20.8a8.21,8.21,0,0,1-3.19,1.41s1.27,9.79,1,10.56c-1,2.05-5.23,5.57-5.23,5.57a55.82,55.82,0,0,1,7,1.91s0.85-14.63.47-19.44h0Zm13.17,5.69c-0.34-2.22-.73-4.66-2.08-6.45-1.67-1.86-8.23-3.34-8.23-3.34l-0.46,24.87a36.8,36.8,0,0,1,8,4.91,2.34,2.34,0,0,0,2.57-1.8c1.73-5.61.84-14.09,0.22-18.18h0Zm32.79,14.91a0.55,0.55,0,0,1,.45,1c-1.94,1.83-5.33,4.91-6.51,6a0.76,0.76,0,0,1-.89.1,34.16,34.16,0,0,0-12.49-4,1.72,1.72,0,0,1-.51-1.09c1.92-3.53.71-18.29,1.16-21.62,0.32-.71.51-1.48,1.28-1.67,3.34-1.22,5.45-3.85,8.66-5.58a116.63,116.63,0,0,1,8.15,8.66c0.39,0.58,1.16,1.28,1,1.93-2.69,4.17-11.36,10.39-11.8,11.1a2.91,2.91,0,0,0,1.73,3.66c2.12,0.64,4.3,1.41,6.74,2.12,1.76,0.58,2.33-.49,3.08-0.51h0Zm-11.29-8.15c0,0.26,4.36-2.63,4-5-0.19-1.93-2.12-2.89-3.34-4.36-0.19-.26-0.71.19-1,0.19-0.71,3.21.26,6.1,0.26,9.18h0Zm93,8.15a0.55,0.55,0,0,1,.45,1c-1.94,1.83-5.33,4.91-6.51,6a0.76,0.76,0,0,1-.89.1,34.15,34.15,0,0,0-12.49-4,1.71,1.71,0,0,1-.51-1.09c1.92-3.53.71-18.29,1.16-21.62,0.32-.71.51-1.48,1.28-1.67,3.34-1.22,5.45-3.85,8.66-5.58a116.85,116.85,0,0,1,8.15,8.66c0.39,0.58,1.15,1.28,1,1.93-2.7,4.17-11.36,10.39-11.81,11.1a2.91,2.91,0,0,0,1.73,3.66c2.12,0.64,4.3,1.41,6.74,2.12,1.76,0.58,2.33-.49,3.08-0.51h0Zm-11.29-8.15c0,0.26,4.36-2.63,4-5-0.19-1.93-2.12-2.89-3.34-4.36-0.19-.26-0.71.19-1,0.19-0.71,3.21.26,6.1,0.26,9.18h0Zm132,8.15a0.55,0.55,0,0,1,.45,1c-1.94,1.84-5.34,4.91-6.52,6a0.75,0.75,0,0,1-.88.1,34.2,34.2,0,0,0-12.49-4,1.73,1.73,0,0,1-.52-1.09c1.93-3.53.71-18.29,1.16-21.62,0.32-.71.51-1.48,1.28-1.67,3.22-1.18,5.3-3.66,8.32-5.39a0.52,0.52,0,0,1,.62.08c2.78,2.62,5.26,5.42,7.87,8.4,0.39,0.58,1.16,1.28,1,1.93-2.69,4.17-11.35,10.39-11.8,11.1a2.9,2.9,0,0,0,1.73,3.66c2.12,0.64,4.3,1.41,6.74,2.12,1.75,0.58,2.32-.5,3.08-0.52h0Zm-11.3-8.15c0,0.26,4.37-2.63,4.05-5-0.2-1.93-2.12-2.89-3.34-4.36-0.19-.26-0.71.19-1,0.19-0.71,3.21.25,6.1,0.25,9.18h0ZM217,131.36a0.6,0.6,0,0,1-.7.13,25.23,25.23,0,0,1-6.54-5.07c-1.07-1.35,1-2.24,1-3.4,0.71-4.81.51-30.28,1.16-32.53,1.28-2.57,2.23-1.64,7.06-5.45,2.62-2.07,3.11-.21,3.16.09s-2.2,2.28-2.52,3.44c-1,4.17-1.41,31.57-1,34,0.51,1.41,2.85,2.4,3.41,2.85s0.76,0.48.44,1C221.16,128.66,218.74,129.64,217,131.36Zm9.71-8.34c0.51-3.66.51-7.06,0.71-10.39,0-2.44-.07-5.71-1-6.93s-1.92-1-1.67-1.73c0.73-2.15,5-5.36,6-5.54s2.84,1.69,3.61,3.1c0.71,1-1.16,2.24-1.35,3.4-0.45,2.44.39,15.4,0.9,17.58,0.45,1.15,1.6,1.67,2.37,2.63a0.61,0.61,0,0,1,.1.86l-0.1.1a22.68,22.68,0,0,1-4.62,5.26,28,28,0,0,1-6.42-4.81c-0.3-.22-0.27-0.49,0-1a8.52,8.52,0,0,0,1.41-2.57h0Zm-2.29-25c2.37-2.44,4.11-5.52,7.19-6.93,1.09-.51,2.89-1.73,3.66-0.32a22.74,22.74,0,0,1-6.41,6,9.19,9.19,0,0,1-4,1.51C224.68,98.49,224.43,98,224.43,98Zm42,4.8c0.63-.69.49-0.74,0-1-1.61-.72-6-3.89-6.3-3.93s-3.83,1.87-5.91,4.83c-0.11.15-.12,0.25,0.15,0.41a9.73,9.73,0,0,1,3,2.43c0.32,0.48.26,4.1,0.23,5.88s0,3.85.19,5.77a52.87,52.87,0,0,1,.77,6.74,1.43,1.43,0,0,1-.77,1c-3.53-1.22-6.42-3.14-10.27-3.85a1.58,1.58,0,0,1-.51-1c0.71-2.18,2.54-2.88,3.26-5.52a13.7,13.7,0,0,0,.49-4.2,21.45,21.45,0,0,0-.29-2.85,15.67,15.67,0,0,0-.81-2.87c-0.24-.71-0.76-2.5-0.79-2.59-0.77-2.37-1.34-3.15-1.34-5.52,0.19-2.24,3.08-1.92,3.53-3.85a1,1,0,0,0-.64-0.77c-4.36,2.18-8.66,5.58-10.59,10.07,1.41,4.36,3.53,8.66,3.34,13.28a13,13,0,0,1-.77,5.32c-0.64,1.93-2.89,3.34-3.34,5.26-0.19.19,0.45,0.71,1,1a34,34,0,0,1,9.88,3.4,38.27,38.27,0,0,1,3.85,2.12,1.93,1.93,0,0,0,1.48.26c2.89-1.22,4.49-3.85,7.38-5.58,1.48-1.15,2.89-2.12,3.21-3.85,1-6-1.28-11.55-.77-17.52A5.16,5.16,0,0,1,266.39,102.84Zm33.67,28c-3-.77-4.17-2.82-7.44-2.82a1.41,1.41,0,0,1-1.28-1c0-1.28,1.73-1.93,1.92-2.89,1.73-6.1,1.48-10.78.51-17,0-1-2.12-1.48-2.12-2.25,0-2.57,2.57-4.81,4.49-6.93a9,9,0,0,1,5.13,3.59c0.45,0.45.64,1.73,1.41,1.22,1.92-1,2.89-4.11,5.33-4.3,1.6,2.12,3.34,4.81,3.34,7.19-0.26,2.44-1.92,5-3.85,6.93a1.33,1.33,0,0,1-1.41-.19c-1-1.92-1.28-4.3-3.21-5.26-1.41-1-1.92,1-1.92,1.92-0.06,4-.17,11.75-0.22,13s2.3,2.88,5.51,2.43c0.45-.19.64,0.77,0.45,1.22C304.52,128.16,303.72,131.3,300.06,130.85Zm39.85-27.72c-0.59-.42-0.52-0.71-0.32-1,1.82-1.83,5-5.36,5.73-5.55a1,1,0,0,1,.71.2,12.3,12.3,0,0,1,4,2.82,7.11,7.11,0,0,1,.3,2.06c3.08-.45,5.65-3.39,8.34-4.87a0.88,0.88,0,0,1,1.16,0,11.09,11.09,0,0,0,1.92,1.48c3.05,1.3,5.18,1.86,4.62,2.89-0.25,1.22-1.22,2.37-1.22,3.66-0.51,5.26-1,10.59-.19,15.85,0.19,1.67,1.93,2.5,2.86,3.66,0.53,0.66.66,0.79,0.3,1.34a49.13,49.13,0,0,1-4.05,4.15c-1.25,1.23-1.69,1.37-2.51.48a50.42,50.42,0,0,1-4.81-4.81c-1.53-2,.19-2.37.51-3.66a77,77,0,0,0,0-15.85c-1.92-1.15-4.38-1.42-6.54-1.67-0.79-.09-0.91-0.15-1,1-0.24,5.32-.51,10.33.26,15.59,0,1.28,1.67,2.25,1.67,3.21,0,2.57-2.89,4.3-4.56,6.42a0.89,0.89,0,0,1-1.22,0c-1.66-1.6-3.85-2.37-5.32-4.3,2.24-5.32,1.92-11.29,2.24-16.87a7,7,0,0,0-2.88-6.22h0ZM379,121.8c2.11,0.66,3.66,1.41,6.1,2.12,1,0.26,2.11-.71,3.08-0.51,0.25,0.32.77,0.77,0.45,1-2.38,2.24-4.3,4.62-6.93,6.35-3.34-1-5.39-2.7-8.79-3.66-1.16-.32-4,0-3.4-3s0.66-19.26.51-20.34a1.4,1.4,0,0,1,1.1-1.64l0.18,0c3.26-1.19,4.74-3.11,7.79-4.81a0.37,0.37,0,0,1,.43.05c2.87,2.58,6.85,3.9,9.23,5.27-0.57,1.15-1.73,4.56-4.62,5.77-0.38.26-3.48-1.7-4.7-3.17a2.57,2.57,0,0,0-2.16.93c-0.71,3.21-1.36,14.75,1.73,15.72h0ZM313.5,105.08v0h0v0h0Zm22.33,16.24c-0.07-1.14-.89-15.11-0.19-17.27,0.19-.7,1-1.34,1.28-2.17a1.27,1.27,0,0,0-.9-1.47c-4-.26-7.49-2.76-11.28-4.08-0.81-.28-9.57,4-9.68,7.14s6,5.51,10,6.54,7.51,1.22,7.35.52c-0.06-.27-3.8-0.43-7-1.81-2.93-1.26-7.08-3.66-6.9-5s1.81-1.68,2.48-1.61c1,0.1,7.87,2,8,4.26a96,96,0,0,1-.18,14.4c-0.27,2.32,0,3.14-1.41,3.19-2.82.11-5.74-.51-6.18-3.38-0.14-.87.13-6.2,0.13-10.37,0-.47,1.43-2.35,1.28-2.52-0.55-.6-2.23.62-3.63,1.51s-2.48,1.84-3.75,2.71a0.78,0.78,0,0,0-.34.66,57.64,57.64,0,0,1-.46,9.34c-0.19,1.15-2,2.83-1.62,3.6,1.4,2.68,3.46,3.57,6.92,4.52a3.15,3.15,0,0,0,2.17.19c1.78-1,3.31-2.36,5-3.32a4,4,0,0,1,2.68.45c0.94,0.57,1.9,2.25,2.69,2.85,0.27,0.21.33,0.1,0.63,0,2-.64,4-3.36,5.61-5.52,0.19-.39-2.67-2.26-2.75-3.4h0Z" transform="translate(0 0.01)"/></svg>